<svg width="48" height="88" viewBox="0 0 48 88" fill="none" xmlns="http://www.w3.org/2000/svg">
<path d="M6.54621 9.83961V2.35H2.88127V9.83961H0.992188V0.813477H8.44722V9.83961H6.54621Z" fill="#ffffff"></path>
<path fill-rule="evenodd" clip-rule="evenodd" d="M13.7791 5.84317C13.7692 5.59907 13.7235 5.38524 13.6401 5.20358C13.5666 5.01247 13.4633 4.85919 13.3341 4.74187C13.205 4.61509 13.0561 4.52426 12.8892 4.46938C12.7223 4.40505 12.5515 4.37477 12.3747 4.37477C12.0132 4.37477 11.6993 4.50723 11.4312 4.76836C11.1729 5.02192 11.0239 5.37957 10.9862 5.84128H13.7791V5.84317ZM10.9326 6.95772C10.9604 7.46485 11.1094 7.8679 11.3775 8.16688C11.6556 8.46586 12.0152 8.61535 12.4601 8.61535C12.7561 8.61535 13.0163 8.55101 13.2368 8.42423C13.4672 8.28798 13.6162 8.10254 13.6818 7.86601H15.543C15.3305 8.5548 14.961 9.08463 14.4326 9.45552C13.9043 9.8264 13.2765 10.0137 12.5436 10.0137C10.2671 10.0137 9.12891 8.7989 9.12891 6.36922C9.12891 5.85263 9.2024 5.38524 9.35138 4.96895C9.50037 4.55265 9.71292 4.195 9.99102 3.89413C10.2771 3.59515 10.6247 3.36808 11.0319 3.21481C11.4391 3.05207 11.9059 2.9707 12.4343 2.9707C13.4891 2.9707 14.2856 3.30185 14.822 3.96226C15.3682 4.62455 15.6404 5.62178 15.6404 6.95393H10.9326V6.95772Z" fill="#ffffff"></path>
<path fill-rule="evenodd" clip-rule="evenodd" d="M21.1757 6.44125C21.1757 7.81882 20.6573 8.5076 19.6204 8.5076C18.6113 8.5076 18.1067 7.78287 18.1067 6.33339C18.1067 5.76192 18.2497 5.30021 18.5378 4.94635C18.8338 4.5925 19.1993 4.41652 19.6343 4.41652C20.0872 4.41652 20.4586 4.60764 20.7447 4.98798C21.0327 5.35887 21.1757 5.84329 21.1757 6.44125ZM16.4004 3.15059V13.0074H18.1782V8.96932C18.6868 9.66757 19.3621 10.0157 20.2044 10.0157C20.6493 10.0157 21.0427 9.93437 21.3843 9.77164C21.7359 9.59944 22.0319 9.35912 22.2722 9.05068C22.5126 8.74224 22.6934 8.38082 22.8145 7.96263C22.9437 7.53687 23.0092 7.06948 23.0092 6.56235C23.0092 6.00035 22.9357 5.497 22.7867 5.05421C22.6397 4.60953 22.4351 4.23486 22.1749 3.92642C21.9167 3.61798 21.6008 3.38334 21.2314 3.21871C20.8698 3.05598 20.4765 2.97461 20.0514 2.97461C19.1993 2.97461 18.5656 3.30575 18.1504 3.96616L18.1365 3.15059H16.4004Z" fill="#ffffff"></path>
<path fill-rule="evenodd" clip-rule="evenodd" d="M27.9042 5.76361C28.2002 5.76361 28.4326 5.70496 28.5995 5.58764C28.7663 5.46085 28.8498 5.31136 28.8498 5.10889C28.8498 4.60176 28.522 4.34819 27.8645 4.34819H25.4311V5.76361H27.9042ZM27.8625 8.58877C28.6491 8.58877 29.0425 8.28601 29.0425 7.67859C29.0425 7.08063 28.6869 6.78166 27.9738 6.78166H25.4292V8.58877H27.8625ZM23.7089 9.83957V3.15039H28.4326C28.8398 3.15039 29.1815 3.19581 29.4596 3.28663C29.7377 3.368 29.9642 3.48154 30.139 3.62724C30.3157 3.77295 30.4389 3.94514 30.5144 4.14383C30.5879 4.34252 30.6256 4.55067 30.6256 4.76828C30.6256 5.16755 30.5184 5.48923 30.3058 5.73334C30.1032 5.96987 29.839 6.13261 29.5152 6.22343C29.6821 6.25939 29.843 6.32373 30.0019 6.41456C30.1588 6.49592 30.2979 6.60568 30.419 6.74003C30.5482 6.87627 30.6495 7.04279 30.725 7.24337C30.7984 7.43449 30.8362 7.65967 30.8362 7.9227C30.8362 8.20275 30.7845 8.46199 30.6832 8.69853C30.5819 8.93506 30.425 9.13753 30.2105 9.30973C29.9979 9.47246 29.7158 9.60492 29.3642 9.70332C29.0226 9.79415 28.6094 9.83957 28.1287 9.83957H23.7089Z" fill="#ffffff"></path>
<path fill-rule="evenodd" clip-rule="evenodd" d="M33.3567 8.52071V6.55086H35.5219C35.8556 6.55086 36.1139 6.6379 36.3006 6.8101C36.4853 6.97283 36.5767 7.21883 36.5767 7.5443C36.5767 7.8622 36.4853 8.10631 36.3006 8.2785C36.1139 8.44124 35.8556 8.52261 35.5219 8.52261H33.3567V8.52071ZM33.3567 5.28682V3.15234H31.5928V9.84152H35.6331C36.4198 9.84152 37.0316 9.64661 37.4666 9.2568C37.9096 8.85753 38.132 8.28796 38.132 7.5443C38.132 6.8101 37.9096 6.25188 37.4666 5.87153C37.0316 5.48173 36.4198 5.28682 35.6331 5.28682H33.3567Z" fill="#ffffff"></path>
<path d="M40.5224 3.15039H38.7168V9.83957H40.5224V3.15039Z" fill="#ffffff"></path>
<path fill-rule="evenodd" clip-rule="evenodd" d="M45.9764 5.84317C45.9684 5.59907 45.9208 5.38524 45.8393 5.20358C45.7638 5.01247 45.6625 4.85919 45.5334 4.74187C45.4043 4.61509 45.2553 4.52426 45.0884 4.46938C44.9216 4.40505 44.7508 4.37477 44.5759 4.37477C44.2144 4.37477 43.8986 4.50723 43.6304 4.76836C43.3722 5.02192 43.2232 5.37957 43.1874 5.84128H45.9764V5.84317ZM43.1318 6.95772C43.1596 7.46485 43.3066 7.8679 43.5748 8.16688C43.8529 8.46586 44.2144 8.61535 44.6574 8.61535C44.9554 8.61535 45.2136 8.55101 45.4361 8.42423C45.6665 8.28798 45.8155 8.10254 45.881 7.86601H47.7403C47.5278 8.5548 47.1563 9.08463 46.6299 9.45552C46.1015 9.8264 45.4718 10.0137 44.7408 10.0137C42.4644 10.0137 41.3262 8.7989 41.3262 6.36922C41.3262 5.85263 41.3997 5.38524 41.5486 4.96895C41.6976 4.55265 41.9102 4.195 42.1863 3.89413C42.4743 3.59515 42.8219 3.36808 43.2292 3.21481C43.6364 3.05207 44.1032 2.9707 44.6316 2.9707C45.6864 2.9707 46.4809 3.30185 47.0193 3.96226C47.5635 4.62455 47.8377 5.62178 47.8377 6.95393H43.1318V6.95772Z" fill="#ffffff"></path>
<path d="M17.7779 43.4501H3.75773C2.90953 43.4501 2.58177 42.3999 3.29092 41.9571L45.6493 15.5183C46.3366 15.0906 47.1987 15.7397 46.9206 16.4758L20.2867 86.6052C19.9609 87.4624 18.63 87.2391 18.63 86.3289V44.2638C18.632 43.8134 18.2486 43.4501 17.7779 43.4501Z" fill="#ffffff"></path>
</svg>